# xmcd
#
# Track frame offsets:
#	150
#	13953
#	31449
#	48330
#	62551
#	79026
#	95738
#	111616
#	127558
#	143249
#
# Disc length: 2107 seconds
#
# Revision: 1
# Processed by: cddbd v1.5.2PL0 Copyright (c) Steve Scherf et al.
# Submitted via: audiograbber 1.83.01
#
DISCID=8508390a
DTITLE=Isabelle et les rats - Isabelle et les rats
DYEAR=1900
DGENRE=Country
TTITLE0=Le dernier wagon
TTITLE1=Carrousel
TTITLE2=La mémoire du poisson rouge
TTITLE3=Coup monté
TTITLE4=Les rats du sous-sol
TTITLE5=Sur la corde raide
TTITLE6=L'espérance
TTITLE7=Valse fantôme
TTITLE8=Angle-mort
TTITLE9=La tombée du rideau
EXTD=
EXTT0=
EXTT1=
EXTT2=
EXTT3=
EXTT4=
EXTT5=
EXTT6=
EXTT7=
EXTT8=
EXTT9=
PLAYORDER=
